<svg width="24" height="24" viewBox="0 0 24 24" fill="none" xmlns="http://www.w3.org/2000/svg"><path d="m15.23 16.242 5.548 5.548a.714.714 0 0 0 1.01-1.01L3.221 2.21a.714.714 0 1 0-1.01 1.01l3.706 3.707c-2.85 2.25-3.873 5.536-3.887 5.588a.716.716 0 0 0 1.371.407c.052-.181.97-3.088 3.517-4.993l2.267 2.268a4.285 4.285 0 1 0 6.045 6.046m-1.012-1.014a2.856 2.856 0 1 1-4.018-4.02zM11.68 9.154l1.88 1.881c.331.217.614.5.83.831l1.882 1.881q.01-.158.011-.319a4.286 4.286 0 0 0-4.603-4.274M8.137 5.609 9.24 6.714a8.7 8.7 0 0 1 2.757-.429c6.501 0 8.508 6.36 8.596 6.636a.72.72 0 0 0 .685.507v-.007a.71.71 0 0 0 .686-.914c-.022-.072-2.386-7.65-9.968-7.65-1.478 0-2.758.288-3.86.752" fill="#565656"/></svg>