<svg width="34" height="34" viewBox="0 0 34 34" fill="none" xmlns="http://www.w3.org/2000/svg">
<path d="M4.25004 4.24999V2.83333C3.87432 2.83333 3.51398 2.98258 3.24831 3.24826C2.98263 3.51394 2.83337 3.87427 2.83337 4.24999H4.25004ZM25.9151 20.2484L24.6245 19.6647C24.5059 19.927 24.4701 20.2193 24.5217 20.5025C24.5733 20.7857 24.71 21.0464 24.9135 21.25L25.9151 20.2484ZM29.75 24.0833L30.7516 25.0849C31.0172 24.8192 31.1664 24.459 31.1664 24.0833C31.1664 23.7077 31.0172 23.3474 30.7516 23.0817L29.75 24.0833ZM24.0834 29.75L23.0818 30.7516C23.3475 31.0172 23.7077 31.1664 24.0834 31.1664C24.459 31.1664 24.8193 31.0172 25.085 30.7516L24.0834 29.75ZM20.2485 25.9151L21.25 24.9135C21.0463 24.7097 20.7853 24.5728 20.5018 24.5212C20.2184 24.4695 19.9259 24.5056 19.6634 24.6245L20.2485 25.9151ZM15.5834 2.83333H4.25004V5.66666H15.5834V2.83333ZM28.3334 15.5833C28.3334 13.909 28.0036 12.251 27.3628 10.7041C26.7221 9.15721 25.7829 7.75166 24.599 6.56772C23.415 5.38377 22.0095 4.44461 20.4626 3.80386C18.9157 3.16312 17.2577 2.83333 15.5834 2.83333V5.66666C18.2134 5.66666 20.7358 6.71145 22.5955 8.57119C24.4553 10.4309 25.5 12.9533 25.5 15.5833H28.3334ZM27.2057 20.8321C27.9499 19.1824 28.3343 17.3931 28.3334 15.5833H25.5C25.5009 16.99 25.2024 18.3822 24.6245 19.6647L27.2057 20.8321ZM24.9135 21.25L28.7485 25.0849L30.7516 23.0817L26.9167 19.2468L24.9135 21.25ZM28.7485 23.0817L23.0818 28.7484L25.085 30.7516L30.7516 25.0849L28.7485 23.0817ZM25.085 28.7484L21.25 24.9135L19.2469 26.9167L23.0818 30.7516L25.085 28.7484ZM15.5834 28.3333C17.3932 28.3342 19.1824 27.9498 20.8321 27.2057L19.6634 24.6245C18.3804 25.2026 16.9906 25.501 15.5834 25.5V28.3333ZM2.83337 15.5833C2.83337 18.9648 4.17667 22.2078 6.56776 24.5989C8.95885 26.99 12.2019 28.3333 15.5834 28.3333V25.5C12.9533 25.5 10.431 24.4552 8.57123 22.5955C6.7115 20.7357 5.66671 18.2134 5.66671 15.5833H2.83337ZM2.83337 4.24999V15.5833H5.66671V4.24999H2.83337Z" fill="#2B56EF"/>
<path d="M15.5834 12.75C14.0186 12.75 12.7501 14.0185 12.7501 15.5833C12.7501 17.1481 14.0186 18.4167 15.5834 18.4167C17.1482 18.4167 18.4167 17.1481 18.4167 15.5833C18.4167 14.0185 17.1482 12.75 15.5834 12.75Z" fill="#2B56EF"/>
<path d="M4.25 4.25L15.5833 15.5833" stroke="#2B56EF" stroke-width="2" stroke-linecap="round" stroke-linejoin="round"/>
</svg>
